<svg xmlns="http://www.w3.org/2000/svg" width="1200" height="1200" style="width:100%;height:100%;transform:translate3d(0,0,0);content-visibility:visible"><defs><clipPath id="a"><path d="M0 0h1200v1200H0z"/></clipPath><clipPath id="b"><path d="M0 0h1920v1080H0z"/></clipPath><clipPath id="c"><path d="M0 0h1200v1200H0z"/></clipPath></defs><g clip-path="url(#a)"><g clip-path="url(#b)" style="display:block" transform="translate(-360 140)"><g style="display:block"><path fill="#FFF" d="M873.926 574.957s15.314 56.74 74.235 46.757c-6.274-50.468-49.099-59.642-74.235-46.757"/><path fill="none" stroke="#1A1A1A" stroke-linecap="round" stroke-linejoin="round" stroke-width="2" d="M873.926 574.957s15.314 56.74 74.235 46.757c-6.274-50.468-49.099-59.642-74.235-46.757"/><path fill="#FFF" d="M959.89 615.015s70.567-7.094 70.177-81.629c-38.63 20.136-64.773 43.808-70.177 81.629"/><path fill="none" stroke="#1A1A1A" stroke-linecap="round" stroke-linejoin="round" stroke-width="2" d="M959.89 615.015s70.567-7.094 70.177-81.629c-38.63 20.136-64.773 43.808-70.177 81.629"/><path fill="#FFF" d="M947.313 587.92s-61.46-48.193-1.553-110.96c31.162 28.264 31.417 60.341 1.553 110.96"/><path fill="none" stroke="#1A1A1A" stroke-linecap="round" stroke-linejoin="round" stroke-width="2" d="M947.313 587.92s-61.46-48.193-1.553-110.96c31.162 28.264 31.417 60.341 1.553 110.96"/><path fill="none" stroke="#1A1A1A" stroke-linecap="round" stroke-linejoin="round" stroke-width="2" d="M945.76 476.96s-13.18 132.838 25.733 180.46"/><path fill="none" stroke="#1A1A1A" stroke-linecap="round" stroke-linejoin="round" stroke-width="2" d="M873.926 574.957s69.114 54.146 80.063 45.788c24.057-18.36 76.079-87.359 76.079-87.359"/><path fill="#FFF" d="M648.71 773.08s-61.997-74.034-30.229-152.77c31.993 20.408 51.55 135.663 51.89 150.803-17.25 3.313-21.66 1.966-21.66 1.966"/><path fill="none" stroke="#1A1A1A" stroke-linecap="round" stroke-linejoin="round" stroke-width="2" d="M648.71 773.08s-61.997-74.034-30.229-152.77c31.993 20.408 51.55 135.663 51.89 150.803-17.25 3.313-21.66 1.966-21.66 1.966"/><path fill="none" stroke="#1A1A1A" stroke-linecap="round" stroke-linejoin="round" stroke-width="2" d="M625.038 656.212s9.328 85.408 36.046 110.403"/><path fill="#1C0311" d="M498.107 758.617s9.78 35.79 41.067 59.029c69.598 5.16 71.635 3.682 71.635 3.682l11.367-16.85-39.16-22.595s-66.745-25.274-84.909-23.266"/><path fill="none" stroke="#1A1A1A" stroke-linecap="round" stroke-linejoin="round" d="M498.107 758.617s9.78 35.79 41.067 59.029c69.598 5.16 71.635 3.682 71.635 3.682l11.367-16.85-39.16-22.595s-66.745-25.274-84.909-23.266"/><path fill="none" stroke="#FFF" stroke-linecap="round" stroke-linejoin="round" stroke-width="2" d="M512.123 771.938s47.223 53.673 106.206 42.003"/><path fill="#FF812C" d="M631.734 814.63s-96.686-18.831-124.654-173.373c88.984 21.586 134.693 161.919 134.693 161.919z"/><path fill="none" stroke="#000" stroke-linecap="round" stroke-linejoin="round" stroke-width="2" d="M631.734 814.63s-96.686-18.831-124.654-173.373c88.984 21.586 134.693 161.919 134.693 161.919z"/><path fill="none" stroke="#1A1A1A" stroke-linecap="round" stroke-linejoin="round" stroke-width="2" d="M524.962 658.347s64.397 125.402 115.51 144.27"/></g><g style="display:block"><path fill="#1C0311" d="M628.937 799.543s-25.933-9.862 8.323-39.257 62.571-79.412 189.04-47.481c28.314-34.769 59.773-71.753 98.783-54.204 39.011 17.547-71.729 112.562-71.729 112.562z"/><path fill="none" stroke="#1A1A1A" stroke-linecap="round" stroke-linejoin="round" d="M628.937 799.543s-25.933-9.862 8.323-39.257 62.571-79.412 189.04-47.481c28.314-34.769 59.773-71.753 98.783-54.204 39.011 17.547-71.729 112.562-71.729 112.562z"/><path fill="#FFF" d="M603.89 824.23s-79.675 91.655 179.589 94.172c198.861 1.259 226.545-55.566 226.545-55.566s56.465 37.064 141.361 48.015c97.553 12.585 208.053 8.542 251.678-13.004s17.619-72.055-36.073-72.157z"/><path fill="none" stroke="#1A1A1A" stroke-linecap="round" stroke-linejoin="round" stroke-width="2" d="M603.89 824.23s-79.675 91.655 179.589 94.172c198.861 1.259 226.545-55.566 226.545-55.566s56.465 37.064 141.361 48.015c97.553 12.585 208.053 8.542 251.678-13.004s17.619-72.055-36.073-72.157z"/><path fill="#1C0311" d="M1144.254 841.217s-44.044 7.717 41.107 16.233c85.152 8.517 182.285.801 175.036-12.54-90.304-13.76-216.143-3.693-216.143-3.693"/><path fill="none" stroke="#1A1A1A" stroke-linecap="round" stroke-linejoin="round" d="M1144.254 841.217s-44.044 7.717 41.107 16.233c85.152 8.517 182.285.801 175.036-12.54-90.304-13.76-216.143-3.693-216.143-3.693"/><path fill="#FFF" d="M1200.673 824.231H603.89c26.791-60.716 86.362-109.586 146.698-109.904 62.967-.335 104.425 41.874 112.416 50.336 2.677-92.003 82.332-155.732 155.201-145.14 57.994 8.433 108.038 63.404 113.258 133.395 2.266-1.866 25.378-20.367 46.556-13.005 23.065 8.02 38.96 45.021 22.654 84.318"/><path fill="none" stroke="#1A1A1A" stroke-linecap="round" stroke-linejoin="round" stroke-width="2" d="M1200.673 824.231H603.89c26.791-60.716 86.362-109.586 146.698-109.904 62.967-.335 104.425 41.874 112.416 50.336 2.677-92.003 82.332-155.732 155.201-145.14 57.994 8.433 108.038 63.404 113.258 133.395 2.266-1.866 25.378-20.367 46.556-13.005 23.065 8.02 38.96 45.021 22.654 84.318"/><path fill="#1C0311" d="M1196.108 782.026s4.06-10.471 16.988-16.59c15.647-7.404 25.608 1.572 25.608 1.572"/><path fill="none" stroke="#1A1A1A" stroke-linecap="round" stroke-linejoin="round" d="M1196.108 782.026s4.06-10.471 16.988-16.59c15.647-7.404 25.608 1.572 25.608 1.572"/><path fill="#FFF" d="M1360.397 844.911c-62.174 17.542-135.841 15.321-216.128 1.719-3.272-.555-8.933-5.559-5.945-11.618 1.967-3.992 4.833-8.946 8.927-14.401 12.835-17.101 37.743-39.123 84.902-51.824 12.684-3.417 26.903-7.692 43.081-7.947 84.491-1.331 85.163 84.071 85.163 84.071"/><path fill="none" stroke="#1A1A1A" stroke-linecap="round" stroke-linejoin="round" stroke-width="2" d="M1360.397 844.911c-62.174 17.542-135.841 15.321-216.128 1.719-3.272-.555-8.933-5.559-5.945-11.618 1.967-3.992 4.833-8.946 8.927-14.401 12.835-17.101 37.743-39.123 84.902-51.824 12.684-3.417 26.903-7.692 43.081-7.947 84.491-1.331 85.163 84.071 85.163 84.071"/><path fill="#FFF" d="M1232.154 768.786v16.757c-35.064 7.976-59.761 21.644-84.904 35.067 12.836-17.101 37.745-39.123 84.904-51.824"/><path fill="none" stroke="#1A1A1A" stroke-linecap="round" stroke-linejoin="round" stroke-width="2" d="M1232.154 768.786v16.757c-35.064 7.976-59.761 21.644-84.904 35.067 12.836-17.101 37.745-39.123 84.904-51.824"/><path fill="#1C0311" d="M1207.348 693.96c0 8.446-6.847 15.295-15.293 15.295s-15.293-6.849-15.293-15.295 6.847-15.293 15.293-15.293 15.293 6.847 15.293 15.293"/><path fill="none" stroke="#1A1A1A" stroke-linecap="round" stroke-linejoin="round" d="M1207.348 693.96c0 8.446-6.847 15.295-15.293 15.295s-15.293-6.849-15.293-15.295 6.847-15.293 15.293-15.293 15.293 6.847 15.293 15.293"/><path fill="#FF812C" d="M1346.716 674.611c0 19.133-15.51 34.643-34.642 34.643-19.131 0-34.64-15.51-34.64-34.643 0-19.132 15.509-34.643 34.64-34.643 19.132 0 34.642 15.511 34.642 34.643"/><path fill="none" stroke="#000" stroke-linecap="round" stroke-linejoin="round" stroke-width="2" d="M1346.716 674.611c0 19.133-15.51 34.643-34.642 34.643-19.131 0-34.64-15.51-34.64-34.643 0-19.132 15.509-34.643 34.64-34.643 19.132 0 34.642 15.511 34.642 34.643"/><path fill="#FFF" d="M644.998 559.743c0 11.352-9.202 20.555-20.554 20.555s-20.554-9.203-20.554-20.555 9.203-20.555 20.554-20.555c11.352 0 20.554 9.202 20.554 20.555"/><path fill="none" stroke="#1A1A1A" stroke-linecap="round" stroke-linejoin="round" stroke-width="2" d="M644.998 559.743c0 11.352-9.202 20.555-20.554 20.555s-20.554-9.203-20.554-20.555 9.203-20.555 20.554-20.555c11.352 0 20.554 9.202 20.554 20.555"/></g><path fill="none" stroke="#1A1A1A" stroke-linecap="round" stroke-linejoin="round" stroke-width="3" d="M29.793 189.33c-20.305-1.544-38.685-14.294-56.256-24.59s-32.223-26.309-38.553-45.666-3.536-42.021 9.255-57.868c15.576-19.296 42.012-25.521 66.605-28.705C29.719 30.057 51.382 27.17 61.77 11.22c9.575-14.703 4.93-34.875-4.94-49.381S32.7-63.551 21.103-76.718c-11.208-12.725-20.04-27.975-22.956-44.68-2.915-16.706.618-34.935 11.557-47.892 6.821-8.079 16.689-13.68 27.043-15.424" style="display:block" transform="translate(1112.778 638.198)"/></g><g clip-path="url(#c)" style="display:block" transform="translate(0 80)"><g style="display:block"><path fill="#1C0311" d="M524.923 874.779c-4.645-.93-8.15-2.41-9.413-4.644-15.149 1.517-22.519 9.373-22.519 9.373s.348 2.979 1.095 7.237c11.143-.85 25.224-2.21 30.837-11.966"/><path fill="none" stroke="#1A1A1A" stroke-linecap="round" stroke-linejoin="round" d="M524.923 874.779c-4.645-.93-8.15-2.41-9.413-4.644-15.149 1.517-22.519 9.373-22.519 9.373s.348 2.979 1.095 7.237c11.143-.85 25.224-2.21 30.837-11.966"/><path fill="#FF812C" d="M567.858 873.862c-4.667 1.548-28.963 3.719-42.935.918-5.613 9.756-19.695 11.116-30.838 11.965 1.125 6.407 3.156 15.713 6.29 22.163 28.376-9.56 60.071-15.146 83.98-32.795-2.777-5.395-11.907-3.772-16.497-2.25"/><path fill="none" stroke="#000" stroke-linecap="round" stroke-linejoin="round" stroke-width="2" d="M567.858 873.862c-4.667 1.548-28.963 3.719-42.935.918-5.613 9.756-19.695 11.116-30.838 11.965 1.125 6.407 3.156 15.713 6.29 22.163 28.376-9.56 60.071-15.146 83.98-32.795-2.777-5.395-11.907-3.772-16.497-2.25"/><path fill="#1C0311" d="M500.375 908.907c1.85 3.809 4.082 6.623 6.738 7.249 9.262 2.185 73.106-16.058 77.318-31.34 1.104-4.001.91-6.79-.075-8.703-23.91 17.649-55.604 23.232-83.98 32.794"/><path fill="none" stroke="#1A1A1A" stroke-linecap="round" stroke-linejoin="round" d="M500.375 908.907c1.85 3.809 4.082 6.623 6.738 7.249 9.262 2.185 73.106-16.058 77.318-31.34 1.104-4.001.91-6.79-.075-8.703-23.91 17.649-55.604 23.232-83.98 32.794"/><path fill="#FFF" d="M385.65 569.454c11.997 137.09 105.77 312.175 105.77 312.175s10.904 4.897 25.435-11.294c.49-61.632-45.529-376.928-45.529-376.928l-82.228-9.233"/><path fill="none" stroke="#1A1A1A" stroke-linecap="round" stroke-linejoin="round" stroke-width="2" d="M385.65 569.454c11.997 137.09 105.77 312.175 105.77 312.175s10.904 4.897 25.435-11.294c.49-61.632-45.529-376.928-45.529-376.928l-82.228-9.233"/></g><g style="display:block"><path fill="#1C0311" d="M409.842 915.475c-6.473-3.217-11.353-6.773-11.907-10.202-14.733-3.838-27.826 2.258-27.826 2.258s-.437 2.01-1.001 5.135c13.322 4.312 27.013 4.115 40.734 2.809"/><path fill="none" stroke="#1A1A1A" stroke-linecap="round" stroke-linejoin="round" d="M409.842 915.475c-6.473-3.217-11.353-6.773-11.907-10.202-14.733-3.838-27.826 2.258-27.826 2.258s-.437 2.01-1.001 5.135c13.322 4.312 27.013 4.115 40.734 2.809"/><path fill="#FF812C" d="M445.732 926.946c-4.337-.15-23.184-5.155-35.89-11.471-13.721 1.306-27.412 1.503-40.735-2.808-1.174 6.507-2.899 17.867-2.389 26.131 29.062 2.325 57.67 5.249 87.343-.35 2.237-.32 4.301-1.162 6.38-2.147.742-7.275-9.492-9.175-14.709-9.355"/><path fill="none" stroke="#000" stroke-linecap="round" stroke-linejoin="round" stroke-width="2" d="M445.732 926.946c-4.337-.15-23.184-5.155-35.89-11.471-13.721 1.306-27.412 1.503-40.735-2.808-1.174 6.507-2.899 17.867-2.389 26.131 29.062 2.325 57.67 5.249 87.343-.35 2.237-.32 4.301-1.162 6.38-2.147.742-7.275-9.492-9.175-14.709-9.355"/><path fill="#1C0311" d="M366.718 938.798c.345 5.592 1.714 9.763 4.971 10.046 10.384.903 76.527 6.998 85.782-5.869 1.88-2.615 2.782-4.819 2.971-6.673-2.079.984-4.143 1.826-6.381 2.146-29.673 5.599-58.281 2.675-87.343.35"/><path fill="none" stroke="#1A1A1A" stroke-linecap="round" stroke-linejoin="round" d="M366.718 938.798c.345 5.592 1.714 9.763 4.971 10.046 10.384.903 76.527 6.998 85.782-5.869 1.88-2.615 2.782-4.819 2.971-6.673-2.079.984-4.143 1.826-6.381 2.146-29.673 5.599-58.281 2.675-87.343.35"/><path fill="#FFF" d="M435.363 485.913s-1.354 96.848-16.253 188.277c-14.899 91.43-18.075 231.986-18.075 231.986s-27.089 6.097-32.506 2.033c-16.254-31.831-92.289-372.564-5.629-422.296"/><path fill="none" stroke="#1A1A1A" stroke-linecap="round" stroke-linejoin="round" stroke-width="2" d="M435.363 485.913s-1.354 96.848-16.253 188.277c-14.899 91.43-18.075 231.986-18.075 231.986s-27.089 6.097-32.506 2.033c-16.254-31.831-92.289-372.564-5.629-422.296"/><path fill="none" stroke="#1A1A1A" stroke-linecap="round" stroke-linejoin="round" stroke-width="2" d="M397.439 500.475s-8.127 23.365-30.813 34.202"/></g><g style="display:block"><path fill="#1C0311" d="M943.045 253.282H663.637c-18.142 0-33.554 11.645-39.198 27.862h357.804c-5.645-16.217-21.057-27.862-39.198-27.862"/><path fill="none" stroke="#1A1A1A" stroke-linecap="round" stroke-linejoin="round" d="M943.045 253.282H663.637c-18.142 0-33.554 11.645-39.198 27.862h357.804c-5.645-16.217-21.057-27.862-39.198-27.862"/><path fill="#FFF" d="M984.548 519.014V294.789c0-4.782-.818-9.37-2.306-13.645H624.439a41.4 41.4 0 0 0-2.307 13.645v224.225a41.3 41.3 0 0 0 4.532 18.854h353.352a41.3 41.3 0 0 0 4.532-18.854"/><path fill="none" stroke="#1A1A1A" stroke-linecap="round" stroke-linejoin="round" stroke-width="2" d="M984.548 519.014V294.789c0-4.782-.818-9.37-2.306-13.645H624.439a41.4 41.4 0 0 0-2.307 13.645v224.225a41.3 41.3 0 0 0 4.532 18.854h353.352a41.3 41.3 0 0 0 4.532-18.854"/><path fill="#1C0311" d="M626.665 537.869c6.868 13.443 20.84 22.652 36.972 22.652h279.408c16.131 0 30.102-9.209 36.972-22.652z"/><path fill="none" stroke="#1A1A1A" stroke-linecap="round" stroke-linejoin="round" d="M626.665 537.869c6.868 13.443 20.84 22.652 36.972 22.652h279.408c16.131 0 30.102-9.209 36.972-22.652z"/><path fill="#FFF" d="M965.882 352.531H725.528v-58.518h240.354z"/><path fill="none" stroke="#1A1A1A" stroke-linecap="round" stroke-linejoin="round" stroke-width="2" d="M965.882 352.531H725.528v-58.518h240.354z"/><path fill="#FFF" d="M965.882 435.614H725.528v-58.518h240.354z"/><path fill="none" stroke="#1A1A1A" stroke-linecap="round" stroke-linejoin="round" stroke-width="2" d="M965.882 435.614H725.528v-58.518h240.354zM965.882 523.891H725.528v-58.518h240.354z"/><path fill="#FF812C" d="M640.377 527.51h59.983v-30.635h-59.983z"/><path fill="none" stroke="#000" stroke-linecap="round" stroke-linejoin="round" stroke-width="2" d="M-29.992 30.288h59.983v-60.576h-59.983z" transform="matrix(1 0 0 .50574 670.37 512.193)"/><path fill="#FF812C" d="M640.377 435.336h59.983v-92.54h-59.983z"/><path fill="none" stroke="#000" stroke-linecap="round" stroke-linejoin="round" stroke-width="2" d="M-29.992 70.801h59.983V-70.801h-59.983z" transform="matrix(1 0 0 .65353 670.37 389.066)"/><path fill="#1C0311" d="M643.312 299.151h-7.76v-7.76h7.76z"/><path fill="none" stroke="#1A1A1A" stroke-linecap="round" stroke-linejoin="round" d="M643.312 299.151h-7.76v-7.76h7.76z"/><path fill="#1C0311" d="M702.877 299.151h-7.76v-7.76h7.76z"/><path fill="none" stroke="#1A1A1A" stroke-linecap="round" stroke-linejoin="round" d="M702.877 299.151h-7.76v-7.76h7.76z"/><path fill="#1C0311" d="M644.467 438.63h-7.76v-7.76h7.76z"/><path fill="none" stroke="#1A1A1A" stroke-linecap="round" stroke-linejoin="round" d="M644.467 438.63h-7.76v-7.76h7.76z"/><path fill="#1C0311" d="M704.031 438.63h-7.76v-7.76h7.76z"/><path fill="none" stroke="#1A1A1A" stroke-linecap="round" stroke-linejoin="round" d="M704.031 438.63h-7.76v-7.76h7.76z"/><path fill="none" stroke="#1A1A1A" stroke-dasharray="12.134 12.134" stroke-dashoffset="187.384" stroke-linecap="round" stroke-linejoin="round" stroke-width="2" d="M711.059 646.201v-406.49"/><path fill="none" stroke="#1A1A1A" stroke-dasharray="12 12" stroke-dashoffset="-210.26" stroke-linecap="round" stroke-linejoin="round" stroke-width="2" d="M588.22 452.002h429.886"/><path fill="#1C0311" d="M719.027 458.399h-15.938v-12.794h15.938z"/><path fill="none" stroke="#1A1A1A" stroke-linecap="round" stroke-linejoin="round" d="M719.027 458.399h-15.938v-12.794h15.938z"/></g><g style="display:block"><path fill="#FFF" d="m416.525 328.198 35.016-31.27s-1.927-40.21 24.622-48.059c26.549-7.85 36.256 72.74 22.129 80.34-16.915 4.435-24.856-4.186-24.856-4.186l-20.01 17.879"/><path fill="none" stroke="#1A1A1A" stroke-linecap="round" stroke-linejoin="round" stroke-width="2" d="m416.525 328.198 35.016-31.27s-1.927-40.21 24.622-48.059c26.549-7.85 36.256 72.74 22.129 80.34-16.915 4.435-24.856-4.186-24.856-4.186l-20.01 17.879"/><path fill="#1C0311" d="M438.616 293.031s3.983 19.091 15.942 14.262 21.295-25.16 23.576-25.89c2.28-.728-3.291 3.302 5.589 4.543s23.765-11.52 23.765-11.52-1.018-43.255-21.545-36.694c-20.525 6.561-48.752 11.21-47.327 55.3"/><path fill="none" stroke="#1A1A1A" stroke-linecap="round" stroke-linejoin="round" d="M438.616 293.031s3.983 19.091 15.942 14.262 21.295-25.16 23.576-25.89c2.28-.728-3.291 3.302 5.589 4.543s23.765-11.52 23.765-11.52-1.018-43.255-21.545-36.694c-20.525 6.561-48.752 11.21-47.327 55.3"/><path fill="#1C0311" d="m473.436 325.023-8.708-9.21s3.725 11.214 5.577 12.007z"/><path fill="none" stroke="#1A1A1A" stroke-linecap="round" stroke-linejoin="round" d="m473.436 325.023-8.708-9.21s3.725 11.214 5.577 12.007z"/></g><g style="display:block"><path fill="#FFF" d="M599.681 346.14s8.348-21.761 22.2-25.737c3.934-1.53 27.672-14.395 2.373 8.437 12.007 13.548-11.118 27.613-14.85 28.74s-9.723-11.44-9.723-11.44"/><path fill="none" stroke="#1C0311" stroke-linecap="round" stroke-linejoin="round" stroke-width="2" d="M599.681 346.14s8.348-21.761 22.2-25.737c3.934-1.53 27.672-14.395 2.373 8.437 12.007 13.548-11.118 27.613-14.85 28.74s-9.723-11.44-9.723-11.44"/><path fill="#FF812C" d="M455.075 338.508s39.987 46.692 68.229 60.044 71.632-53.78 71.632-53.78 11.557-5.663 17.015 11.883c-15.8 36.722-45.316 88.249-91.402 85.686-46.085-2.56-53.974-14.318-53.974-14.318"/><path fill="none" stroke="#000" stroke-linecap="round" stroke-linejoin="round" stroke-width="2" d="M455.075 338.508s39.987 46.692 68.229 60.044 71.632-53.78 71.632-53.78 11.557-5.663 17.015 11.883c-15.8 36.722-45.316 88.249-91.402 85.686-46.085-2.56-53.974-14.318-53.974-14.318"/></g><g style="display:block"><path fill="#FF812C" d="M450.194 329.773s70.828 151.604 21.089 172.804c-77.85-2.406-111.257-15.061-111.257-15.061s17.003-157.16 43.122-171.31c27.777-15.048 47.046 13.567 47.046 13.567"/><path fill="none" stroke="#000" stroke-linecap="round" stroke-linejoin="round" stroke-width="2" d="M450.194 329.773s70.828 151.604 21.089 172.804c-77.85-2.406-111.257-15.061-111.257-15.061s17.003-157.16 43.122-171.31c27.777-15.048 47.046 13.567 47.046 13.567"/><path fill="#FFF" d="m426.722 312.776 10.856-3.734s20.772 23.6 21.748 32.231l-3.433 13.668s-19.177-37.38-29.17-42.165"/><path fill="none" stroke="#1A1A1A" stroke-linecap="round" stroke-linejoin="round" stroke-width="2" d="m426.722 312.776 10.856-3.734s20.772 23.6 21.748 32.231l-3.433 13.668s-19.177-37.38-29.17-42.165"/></g><g style="display:block"><path fill="#FF812C" d="M403.148 316.206s-81.202 71.507-81.531 92.848c-.48 31.184 44.524 118.647 54.12 120.086 11.236-6.66 18.359-21.674 18.359-21.674s-27.704-79.272-30.745-95.561c30.915-20.388 62.01-47.1 62.01-47.1"/><path fill="none" stroke="#000" stroke-linecap="round" stroke-linejoin="round" stroke-width="2" d="M403.148 316.206s-81.202 71.507-81.531 92.848c-.48 31.184 44.524 118.647 54.12 120.086 11.236-6.66 18.359-21.674 18.359-21.674s-27.704-79.272-30.745-95.561c30.915-20.388 62.01-47.1 62.01-47.1"/></g></g></g></svg>